<svg width="1600" height="1000" viewBox="0 0 1600 1000" fill="none" xmlns="http://www.w3.org/2000/svg">
<rect width="1600" height="1000" fill="#F8F9FA"/>
<path fill-rule="evenodd" clip-rule="evenodd" d="M723 442.833C723 431.88 731.88 423 742.833 423H857.167C868.121 423 877 431.88 877 442.833V524.491C877 524.497 877 524.503 877 524.509V557.167C877 568.121 868.121 577 857.167 577H742.833C731.88 577 723 568.121 723 557.167V442.833ZM870 516.05V442.833C870 435.746 864.255 430 857.167 430H742.833C735.746 430 730 435.746 730 442.833V557.167C730 563.789 735.016 569.24 741.457 569.927L818.642 492.741C826.387 484.996 838.946 484.996 846.691 492.741L870 516.05ZM751.283 570L823.592 497.691C828.604 492.68 836.73 492.68 841.741 497.691L870 525.95V557.167C870 564.255 864.255 570 857.167 570H751.283ZM771.417 462.667C766.584 462.667 762.667 466.584 762.667 471.417C762.667 476.249 766.584 480.167 771.417 480.167C776.249 480.167 780.167 476.249 780.167 471.417C780.167 466.584 776.249 462.667 771.417 462.667ZM755.667 471.417C755.667 462.718 762.718 455.667 771.417 455.667C780.115 455.667 787.167 462.718 787.167 471.417C787.167 480.115 780.115 487.167 771.417 487.167C762.718 487.167 755.667 480.115 755.667 471.417Z" fill="#ADB5BD"/>
</svg>
